<?xml version="1.0" standalone="no"?>
<!DOCTYPE svg PUBLIC "-//W3C//DTD SVG 20010904//EN"
 "http://www.w3.org/TR/2001/REC-SVG-20010904/DTD/svg10.dtd">
<svg version="1.0" xmlns="http://www.w3.org/2000/svg"
 width="300.000000pt" height="225.000000pt" viewBox="0 0 300.000000 225.000000"
 preserveAspectRatio="xMidYMid meet">
<metadata>
Created by potrace 1.13, written by Peter Selinger 2001-2015
</metadata>
<g transform="translate(0.000000,225.000000) scale(0.100000,-0.100000)"
fill="#000000" stroke="none">
<path d="M2861 2185 c-46 -25 -90 -50 -97 -56 -8 -6 -23 -7 -36 -3 -26 9 -24
9 -55 -1 -21 -6 -23 -3 -23 33 0 28 -5 42 -17 46 -26 10 -38 -11 -39 -70 -1
-63 -6 -70 -87 -114 -93 -49 -105 -59 -100 -79 4 -14 -8 -26 -46 -47 -28 -16
-51 -31 -51 -34 0 -3 73 -4 163 -2 167 3 252 18 282 48 12 12 39 17 101 19 86
2 129 14 58 16 -21 1 -45 1 -51 0 -26 -4 -12 17 23 34 72 34 74 39 74 152 0
57 -3 103 -7 103 -5 0 -46 -21 -92 -45z"/>
<path d="M148 2106 c-19 -14 -24 -61 -8 -71 6 -4 10 5 10 19 0 14 3 27 8 27
37 7 52 5 52 -7 0 -8 -9 -14 -20 -14 -11 0 -20 -5 -20 -11 0 -6 7 -8 16 -5 11
4 14 1 12 -12 -2 -10 -12 -17 -26 -16 -29 1 -30 -30 -1 -49 12 -9 16 -18 10
-21 -5 -4 -18 5 -27 19 -18 27 -49 32 -75 12 -17 -13 -35 -52 -20 -42 6 3 8
-17 5 -47 -5 -57 7 -84 41 -90 11 -1 25 -9 31 -17 13 -17 116 -9 123 10 2 6
16 22 32 37 23 20 29 34 29 65 0 31 -3 38 -15 33 -8 -3 -15 -1 -15 5 0 5 7 12
15 16 14 5 14 7 0 23 -8 9 -12 19 -9 22 12 12 -37 19 -51 8 -8 -7 -15 -9 -16
-4 -2 38 -10 101 -14 112 -6 16 -45 15 -67 -2z"/>
<path d="M2688 1673 c22 -9 13 -21 -20 -25 -28 -5 -29 -4 -13 9 18 13 18 13
-1 13 -50 0 -106 -63 -91 -102 3 -7 6 -1 6 15 1 15 10 36 21 47 21 21 46 28
35 10 -3 -5 -13 -10 -21 -10 -8 0 -15 -6 -15 -12 -1 -7 -3 -27 -5 -45 -3 -26
0 -32 19 -36 12 -2 -62 -2 -165 1 -286 7 -395 -10 -766 -117 -96 -27 -179 -48
-185 -45 -7 2 -17 14 -22 27 -6 12 -17 22 -25 23 -8 1 -21 2 -27 2 -8 1 -13
16 -13 36 0 38 -10 49 -34 40 -12 -5 -16 -20 -16 -62 0 -31 -5 -70 -12 -88
-11 -32 -18 -35 -142 -74 -399 -126 -554 -191 -855 -362 -118 -68 -219 -122
-225 -120 -5 2 -13 -3 -17 -10 -12 -18 -11 -30 1 -23 6 3 10 -5 10 -19 0 -14
8 -29 18 -35 9 -5 69 -7 132 -5 90 3 110 1 92 -8 -24 -12 -28 -23 -10 -34 6
-4 16 0 23 9 16 22 49 23 41 1 -4 -10 -1 -14 6 -12 21 7 22 38 1 39 -52 2 47
17 160 23 217 12 433 53 772 147 99 27 239 66 310 86 376 104 581 183 743 286
40 26 78 47 86 47 7 0 19 7 26 15 17 21 37 19 52 -5 7 -11 17 -20 22 -20 6 0
5 5 -2 12 -7 7 -11 26 -11 43 2 27 2 27 6 5 7 -38 17 -42 64 -30 50 14 59 23
53 56 -2 12 -1 25 4 28 4 2 9 -7 10 -21 4 -50 12 -36 12 20 0 31 5 59 11 63
19 11 93 8 97 -5 5 -16 31 -41 43 -41 18 0 9 29 -13 41 -21 11 -21 12 12 28
39 18 53 51 23 51 -10 0 -28 -7 -40 -15 -20 -14 -22 -14 -26 2 -2 10 -3 3 -1
-14 2 -24 -1 -33 -12 -33 -8 0 -14 5 -14 10 0 6 -8 10 -17 10 -19 1 -53 22
-53 34 0 3 8 6 18 6 10 0 27 6 38 14 18 14 18 16 3 31 -16 16 -18 16 -43 0
-27 -18 -32 -15 -17 13 6 12 5 24 -5 37 -14 18 -14 18 -14 -2 0 -12 -4 -24 -9
-28 -5 -3 -8 7 -7 22 2 15 8 29 14 31 16 5 2 32 -17 31 -10 0 -11 -2 -3 -6z
m-966 -295 c-7 -7 -12 -37 -12 -69 l0 -56 -86 -23 c-66 -18 -88 -28 -94 -45
-6 -16 -27 -27 -81 -43 l-73 -21 -25 22 c-16 13 -25 30 -23 42 2 16 1 17 -7 5
-7 -10 -9 -2 -6 29 2 37 15 73 15 43 0 -6 7 -9 15 -6 11 5 15 -1 15 -18 0 -34
6 -38 41 -25 25 10 29 16 29 50 0 35 2 39 20 34 11 -3 26 0 33 7 6 7 20 15 30
19 9 3 17 13 17 21 0 14 20 26 44 26 6 0 12 -12 11 -27 0 -18 5 -28 15 -28 10
0 15 10 15 33 0 36 14 45 16 10 1 -17 2 -19 6 -6 2 10 17 21 31 24 15 3 32 7
37 9 22 7 28 4 17 -7z m-574 -165 c-2 -12 -78 -41 -275 -108 -150 -51 -273
-89 -273 -85 0 14 201 98 385 161 158 54 168 56 163 32z m130 -240 c3 -18 -4
-24 -35 -32 -21 -6 -106 -30 -189 -54 l-150 -43 -11 23 c-9 18 -9 25 0 28 7 3
84 25 171 50 88 25 162 48 165 51 13 13 46 -3 49 -23z"/>
<path d="M1067 563 c-3 -5 -8 -34 -12 -65 l-7 -56 -82 -6 c-44 -3 -144 -8
-221 -11 -77 -4 -157 -9 -177 -12 -24 -3 -38 -1 -38 6 0 6 -4 11 -10 11 -5 0
-10 -6 -10 -13 0 -7 -8 -13 -17 -14 -22 -2 -309 -59 -376 -74 -44 -10 -48 -14
-45 -38 3 -24 8 -27 105 -46 68 -14 100 -24 93 -31 -6 -6 -3 -10 10 -11 13 -1
18 2 14 9 -7 12 -3 11 156 -17 141 -26 345 -35 770 -35 433 0 508 6 683 53 57
16 87 20 87 13 0 -7 10 -12 21 -13 21 -2 21 -1 3 13 -16 13 -16 15 -2 10 9 -2
22 2 28 10 21 24 39 17 38 -16 -1 -17 2 -33 5 -37 4 -3 7 5 7 18 0 14 5 30 12
37 9 9 9 12 -2 12 -7 0 -10 3 -7 6 4 4 13 1 22 -6 13 -11 14 -10 8 6 -6 17 -5
17 10 5 10 -8 17 -9 17 -3 0 6 9 14 20 17 15 5 26 0 40 -17 l20 -23 -2 53 c-1
57 -9 65 -26 27 -6 -14 -16 -25 -22 -25 -6 0 -9 4 -6 9 6 10 -26 21 -61 21
-20 0 -23 6 -25 38 l-1 37 -4 -33 c-3 -25 -8 -32 -21 -28 -9 3 -66 20 -127 37
-60 17 -113 36 -117 43 -6 8 -10 8 -16 -1 -5 -8 -20 -9 -52 -2 -25 5 -162 12
-305 15 l-260 6 -25 27 c-31 35 -70 50 -70 27 0 -9 -4 -16 -10 -16 -5 0 -10
11 -10 25 0 14 5 25 10 25 6 0 10 9 10 20 0 20 -14 27 -23 13z m118 -197 c61
2 135 4 165 6 30 1 66 1 80 -1 14 -1 84 -1 155 2 114 4 168 1 290 -17 17 -2
55 -7 85 -11 61 -8 170 -31 176 -38 3 -2 -33 -4 -78 -5 -46 0 -96 -3 -113 -6
-37 -7 -301 -7 -890 -1 -487 5 -475 4 -475 17 0 4 -7 8 -15 8 -8 0 -15 6 -15
13 0 7 9 13 20 13 11 0 20 -4 20 -9 0 -5 6 -4 14 2 7 6 21 9 30 5 9 -3 16 -2
16 3 0 4 19 9 43 10 23 1 81 4 130 7 63 3 87 2 87 -7 0 -9 2 -9 8 0 5 8 27 11
60 9 29 -2 55 1 58 5 3 5 13 5 22 1 9 -5 67 -7 127 -6z"/>
<path d="M2369 485 c-2 -80 -2 -80 -28 -83 -45 -7 -90 -78 -91 -142 0 -134
165 -191 249 -84 42 54 36 137 -14 184 -13 13 -22 27 -19 31 3 5 -9 9 -25 9
-26 0 -31 4 -31 25 0 14 -4 25 -9 25 -5 0 -7 20 -5 45 4 36 2 45 -10 45 -13 0
-16 -12 -17 -55z"/>
<path d="M2739 498 c-2 -72 -11 -93 -42 -92 -15 0 -27 -4 -27 -9 0 -4 -12 -25
-27 -44 -23 -30 -28 -47 -28 -95 0 -53 3 -60 38 -95 35 -35 41 -38 97 -38 55
0 62 3 96 37 32 31 38 44 41 90 3 43 0 59 -19 87 -13 19 -27 42 -33 50 -5 9
-21 16 -35 16 -24 0 -25 3 -28 68 -2 51 -6 67 -17 67 -11 0 -15 -12 -16 -42z"/>
</g>
</svg>
